M48
;FILE_FORMAT=4:2
METRIC,0000.00
;TYPE=PLATED
T02C2.54
T03C3.20
T05C5.08
T06C5.38
T07C10.16
;TYPE=NON_PLATED
T01C1.73
T04C4.20
%
T01
X+005004Y+017894
X+008052Y+017221
X+008827Y+017729
X+014872Y+008865
X+015646Y+009373
X+015519Y+010097
Y+010351
X+017780Y+016497
Y+016243
X+018694Y+008700
X+005004Y+017640
X+004991Y+018390
X+005766Y+017640
X+008077Y+008954
X+008179Y+016751
X+008585Y+008954
X+008852Y+008204
X+008839Y+008954
X+008827Y+016713
Y+017475
X+010312Y+017640
X+013386Y+008954
X+014872Y+009119
Y+009881
X+014757Y+015354
X+014859Y+017640
X+014846Y+018390
X+015519Y+009843
X+015621Y+017640
X+017932Y+008954
X+017780Y+016751
X+018707Y+008204
X+018694Y+008954
X+018542Y+011240
X+005271Y+008865
X+006045Y+009373
X+005918Y+010097
Y+010351
X+009093Y+008700
X+008179Y+016497
Y+016243
X+010071Y+008865
X+010846Y+009373
X+010719Y+010097
Y+010351
X+009804Y+017894
X+013894Y+008700
X+012979Y+016497
Y+016243
X+012852Y+017221
X+014605Y+017894
X+013627Y+017729
X+017653Y+017221
X+018428Y+017729
X+005271Y+009119
Y+009881
X+005918Y+009843
X+005156Y+015354
X+005512Y+017640
X+005258
X+005245Y+018390
X+006020Y+017640
X+008331Y+008954
X+009106Y+008204
X+009093Y+008954
X+008941Y+011240
X+010071Y+009119
Y+009881
X+010719Y+009843
X+009957Y+015354
X+010058Y+017640
X+010046Y+018390
X+010820Y+017640
X+010566
X+009804
X+009792Y+018390
X+013132Y+008954
X+012878
X+013653Y+008204
X+013907
X+013894Y+008954
X+013640
X+013741Y+011240
X+012979Y+016751
X+014605Y+017640
X+014592Y+018390
X+015367Y+017640
X+013627Y+016713
Y+017475
X+015113Y+017640
X+017678Y+008954
X+018453Y+008204
X+018440Y+008954
X+018186
X+018428Y+016713
Y+017475
T02
X+014834Y+006033
X+004001Y+010287
Y+016358
X+019685Y+010287
Y+016358
X+004001Y+008992
Y+017653
X+007595Y+006033
X+008890
X+007595Y+020561
X+008890
X+014707
X+016129Y+006033
X+016002Y+020561
X+019685Y+008992
Y+017653
T03
X+011849Y+013145
Y+019799
X+002896Y+004051
Y+022593
X+004648Y+019799
X+020828Y+004051
X+019050Y+013145
Y+019799
X+020828Y+022593
X+004648Y+006680
X+014249
X+019050
X+009449
T04
X+002500Y+002500
X+021000
T05
X+004877Y+013043
X+007048Y+006909
X+009220Y+013043
X+007048Y+019685
X+016650Y+006909
Y+019685
T06
X+011862Y+002027
T07
X+011862Y+004940
X+010592
X+013132
X+011862Y+003670
X+010592
X+013132
T00
M30
